<svg id="visual" viewBox="0 0 900 600" width="900" height="600" xmlns="http://www.w3.org/2000/svg" xmlns:xlink="http://www.w3.org/1999/xlink" version="1.1"><rect x="0" y="0" width="900" height="600" fill="#FFFFFF"></rect><path d="M695 600L686.2 583.3C677.3 566.7 659.7 533.3 658.5 500C657.3 466.7 672.7 433.3 658.3 400C644 366.7 600 333.3 586.8 300C573.7 266.7 591.3 233.3 607 200C622.7 166.7 636.3 133.3 628 100C619.7 66.7 589.3 33.3 574.2 16.7L559 0L900 0L900 16.7C900 33.3 900 66.7 900 100C900 133.3 900 166.7 900 200C900 233.3 900 266.7 900 300C900 333.3 900 366.7 900 400C900 433.3 900 466.7 900 500C900 533.3 900 566.7 900 583.3L900 600Z" fill="#c2410c" stroke-linecap="round" stroke-linejoin="miter"></path></svg>